<svg width="59" height="99" viewBox="0 0 59 99" fill="none" xmlns="http://www.w3.org/2000/svg">
<g clip-path="url(#clip0_1013_591)">
<path d="M3.977 20.1519C-0.0936939 17.4471 0.925542 15.3248 3.50177 12.2579C2.70451 11.0551 1.85411 9.82396 1.05998 8.56131C-0.665841 5.81559 -0.346939 3.80354 2.47003 2.0119C3.91134 1.09561 5.67781 0.528833 7.38487 0.116346C9.06067 -0.286694 9.99236 0.365098 10.6552 1.95207C11.3368 3.58313 11.9558 5.23937 12.6405 6.99008C14.1537 7.28606 15.9108 6.88932 17.1927 8.17401C18.4401 9.42092 18.6527 10.8977 18.4495 12.5476C18.7841 12.7649 19.0717 12.9633 19.3718 13.1427C21.6542 14.503 22.2763 16.0868 21.3321 18.5366C21.0539 19.2608 21.0039 19.8559 21.354 20.5423C21.6761 21.1752 21.9418 21.8396 22.1638 22.5103C23.3769 26.1534 25.7217 28.9054 29.1202 31.0308C35.245 34.866 39.5502 40.1024 42.8424 46.3306C47.6541 55.4337 51.6278 64.8358 55.4015 74.3325C56.3926 76.8295 57.3462 79.3422 58.3342 81.8391C59.838 85.6397 58.6937 88.9396 55.9424 91.764C54.7543 92.9857 53.2286 94.0059 51.6747 94.8025C47.0913 97.1421 42.1796 98.6787 36.9552 98.9652C34.8261 99.0817 32.5844 98.8676 30.5334 98.3386C28.0697 97.7026 26.1251 96.3486 24.8776 93.9555C21.7855 88.017 18.2526 82.2799 15.1823 76.3319C12.4342 71.0074 10.3644 65.4089 9.04191 59.6026C8.71363 58.1605 8.40411 56.6869 8.3791 55.2227C8.28217 49.3786 8.27592 43.5345 9.44523 37.7503C10.2456 33.7891 9.41084 30.0516 7.5412 26.4809C7.38487 26.1849 7.12537 25.8417 6.82523 25.7252C4.05516 24.6577 3.2454 22.7213 3.98325 20.1487L3.977 20.1519ZM4.23024 9.29497L4.17084 9.23514C4.68671 10.0444 5.20258 10.8567 5.8185 11.8203C7.31296 11.0961 8.6042 10.5576 9.79852 9.86804C11.0522 9.14383 11.0147 9.06196 10.305 7.76152C9.69222 7.66076 9.04504 7.73633 8.81368 7.48128C8.38535 7.00267 8.75427 6.59333 9.34831 6.39811C10.5176 6.01396 9.88919 5.5511 9.62344 5.20159C7.43177 6.16196 5.38392 7.05935 3.32043 7.96304C3.33294 8.05436 3.3048 8.22124 3.37984 8.31885C3.64246 8.65577 3.94261 8.97064 4.22712 9.29497H4.23024ZM14.6102 9.45555C12.9563 10.6237 11.4493 11.8738 9.75163 12.8247C8.49165 13.53 6.99719 13.8796 5.58714 14.3267C4.69922 14.6101 4.25838 15.1768 4.06767 15.9892C3.86444 16.8646 4.43659 17.296 5.1463 17.6171C6.75019 18.3445 7.23793 19.4434 6.73456 21.0808C6.30936 22.4568 6.48444 22.5008 7.9789 23.2786C8.57919 23.5903 9.12007 24.1224 9.489 24.6703C10.0017 25.4386 10.2988 26.3297 10.7396 27.1453C12.7968 30.9615 13.0219 34.9542 12.1215 39.0727C11.8964 40.1024 11.7026 41.1541 11.6619 42.1995C11.5056 46.1354 11.3336 50.0776 11.3461 54.0136C11.3493 55.7548 11.6275 57.5244 12.034 59.2311C15.0135 71.6938 21.5166 82.7082 28.176 93.647C28.4887 94.1634 29.0765 94.5821 29.6267 94.9096C31.9653 96.2951 34.5947 96.4053 37.2178 96.1313C41.72 95.659 45.9939 94.3743 50.0114 92.4252C51.3214 91.7892 52.5658 90.939 53.6382 89.985C55.611 88.228 56.4145 85.9734 55.8861 83.4481C55.586 82.0154 55.092 80.5985 54.5073 79.2414C49.7801 68.2239 45.6093 56.9892 39.6971 46.4345C37.2929 42.1396 34.5635 38.1848 30.3646 35.2564C28.8607 34.2079 27.4038 33.1027 25.8906 32.0731C23.33 30.3286 21.4697 28.093 20.3817 25.3032C19.8408 23.9178 19.5094 22.4347 18.7872 21.1406C18.1119 19.9315 18.2182 18.9239 18.7215 17.7462C19.3718 16.2222 19.1561 15.8192 17.6241 15.0761C17.1645 14.8525 16.6831 14.6667 16.2078 14.4621C14.6571 15.2178 13.5316 17.0787 10.9678 15.9577C11.5306 15.4319 11.8808 15.0603 12.2778 14.7423C13.2377 13.9709 14.3163 13.3096 15.1761 12.45C16.4142 11.2157 16.1672 10.4033 14.6102 9.4587V9.45555ZM2.11986 5.69279C4.90556 5.66445 5.19633 5.51646 5.89041 3.71222C6.75957 4.06174 7.72879 4.37661 8.09771 3.16119C7.38174 2.90299 6.67516 2.44328 5.9717 2.44642C5.23072 2.45272 4.49287 2.89985 3.8363 3.12656C3.87382 3.80669 3.89571 4.25696 3.90821 4.48367C3.39547 5.29605 1.94165 3.99246 2.11986 5.68964V5.69279Z" fill="#1F2932"/>
<path d="M35.5357 86.4647C32.5624 87.2298 31.54 89.8937 29.7548 91.7294C28.6011 90.832 28.9325 89.9818 29.4171 89.1978C30.3832 87.6329 31.4931 86.1939 33.1158 85.2398C33.5254 84.9974 33.913 84.7203 34.4477 84.3676C33.9631 83.5269 33.5222 82.768 33.0095 81.8801C32.2966 82.4532 31.7433 82.9948 31.0992 83.382C30.7553 83.5867 30.1081 83.7316 29.8549 83.5458C29.2358 83.0892 29.6235 82.4815 30.0549 82.1351C30.6959 81.6187 31.4431 81.2314 32.2654 80.715C31.9308 80.1325 31.5744 79.4618 31.1742 78.8195C27.5506 73.0226 23.5175 67.5564 18.6464 62.742C17.9179 62.0209 17.2801 61.1329 16.8455 60.2041C16.5454 59.5586 16.5235 58.6895 16.6267 57.9559C16.8862 56.1359 18.4056 55.7738 19.4749 56.8727C20.244 57.663 21.1163 58.3494 21.9417 59.08C22.048 58.9886 22.1512 58.9005 22.2575 58.8092C21.8448 58.3432 21.4946 57.7858 21.0069 57.4237C19.6938 56.4507 19.6125 55.1975 20.169 53.853C21.604 50.3894 24.2272 48.3836 27.8758 47.7633C29.067 47.5618 30.08 47.9743 30.7709 49.0323C31.9996 50.9089 33.294 52.7415 34.4508 54.6623C37.571 59.8325 40.6194 65.0531 43.7333 70.2265C44.6025 71.6687 45.4498 73.1738 46.5847 74.3892C48.9421 76.9145 49.0077 79.8366 48.2324 82.8531C47.0724 87.3747 43.4488 89.5631 38.9905 88.6594C37.5804 88.3728 36.3236 87.8344 35.5294 86.4552L35.5357 86.4647ZM31.4244 53.0123C29.0982 57.8803 25.0213 60.2481 20.4254 61.9201C22.4857 64.2754 24.4992 66.4166 26.3313 68.7089C30.4614 73.8728 33.8474 79.5406 37.1239 85.2745C37.4522 85.8507 37.9149 86.5088 38.4808 86.7607C40.8132 87.8029 44.293 86.5277 45.678 84.3519C46.8974 82.4374 46.7535 80.3498 46.7348 78.2307C46.7223 76.9208 45.7531 76.2722 45.1403 75.3716C44.4306 74.3294 43.627 73.3438 42.9767 72.2638C39.5407 66.552 36.1391 60.8149 32.7218 55.0905C32.3342 54.4418 31.9246 53.8121 31.4244 53.0092V53.0123ZM28.2541 54.9456C28.7137 53.7617 29.2483 52.8328 29.4203 51.8378C29.7298 50.0493 28.8638 49.2747 27.1317 49.7628C24.7368 50.4398 22.9047 51.8976 21.8385 54.2057C21.6572 54.5961 21.6885 55.0873 21.6166 55.5691C22.889 55.8367 23.6488 55.1598 24.4335 54.615C26.2625 53.3461 26.2531 53.3335 28.2541 54.9425V54.9456ZM23.2517 57.5119C24.9619 57.9212 25.7373 57.4237 26.5564 55.418C25.3308 56.1957 24.4617 56.7436 23.2517 57.5119ZM19.9314 59.7695C19.3342 59.228 18.8965 58.8281 18.2118 58.2078C18.1774 59.6845 18.5807 60.1253 19.9314 59.7695Z" fill="#1F2932"/>
<path d="M26.6221 37.7188C27.363 38.147 27.8914 38.3517 28.2979 38.7012C30.9241 40.9494 32.9626 43.6762 34.5977 46.7179C34.7291 46.9603 34.8823 47.25 34.8572 47.4988C34.8229 47.8074 34.6822 48.2293 34.4539 48.3521C34.2194 48.478 33.7223 48.4088 33.5254 48.2261C33.1283 47.8546 32.8156 47.3697 32.5405 46.8879C30.9992 44.1989 29.0889 41.8153 26.794 39.7403C26.5408 39.5135 26.1781 39.2364 26.1625 38.9625C26.1406 38.6067 26.4126 38.2351 26.6189 37.7188H26.6221Z" fill="#1F2932"/>
<path d="M16.3828 40.4583C16.1421 42.3696 15.8732 44.7469 15.5136 47.1085C15.4605 47.4643 14.9696 47.754 14.682 48.072C14.4413 47.7729 14.0286 47.4895 13.991 47.1652C13.9035 46.4063 13.966 45.6223 14.0223 44.8509C14.1599 42.886 14.3287 40.9275 14.4819 38.9658C14.4944 38.8241 14.4757 38.6824 14.4944 38.5439C14.5726 37.8921 14.7133 37.1364 15.5199 37.2844C15.8701 37.3474 16.2046 38.0495 16.3515 38.5219C16.4922 38.969 16.3828 39.498 16.3828 40.4583Z" fill="#1F2932"/>
<path d="M13.025 18.3671C12.9624 18.4867 12.9124 18.7544 12.7623 18.8331C11.4304 19.5353 10.0892 20.228 8.71978 20.8451C8.55095 20.9207 8.03508 20.5964 7.94129 20.3571C7.85687 20.1398 8.04759 19.636 8.26331 19.5069C9.45451 18.8016 10.6676 18.1341 11.9151 17.5358C12.5122 17.2493 13.1062 17.7121 13.025 18.3639V18.3671Z" fill="#1F2932"/>
<path d="M11.1522 23.7979C10.6957 23.4484 10.2549 23.2689 10.2361 23.0548C10.2049 22.7116 10.3518 22.1889 10.6082 22.0126C11.3429 21.5056 12.1495 21.0679 12.9781 20.7373C13.2751 20.6208 13.8754 20.7657 14.0504 21.005C14.2099 21.2254 14.1224 21.9181 13.9035 22.0787C13.0406 22.7179 12.0839 23.2311 11.1522 23.7979Z" fill="#1F2932"/>
<path d="M7.80997 18.0866C7.40353 17.4033 6.98458 16.9845 6.95331 16.5405C6.93455 16.254 7.49107 15.9297 7.78809 15.6211C8.08823 16.0462 8.48842 16.4398 8.63849 16.9121C8.70415 17.1199 8.25081 17.4915 7.80997 18.0866Z" fill="#1F2932"/>
<path d="M6.9283 8.5803C7.21594 9.08095 7.45355 9.33285 7.48169 9.60994C7.4942 9.75163 7.1284 10.0539 6.93456 10.0539C6.74697 10.0539 6.39367 9.75163 6.40305 9.59734C6.41868 9.32655 6.6563 9.0715 6.92518 8.57715L6.9283 8.5803Z" fill="#1F2932"/>
<path d="M3.95188 9.29496C3.9425 9.09344 3.84871 8.82265 3.9425 8.71244C4.12697 8.49833 4.40522 8.35034 4.67098 8.23383C4.71162 8.21809 5.00238 8.63687 4.98363 8.65576C4.77728 8.86043 4.54279 9.04306 4.29267 9.1942C4.1895 9.25718 4.02692 9.22254 3.89561 9.23514L3.95188 9.29496Z" fill="#1F2932"/>
<path d="M37.1677 82.6899C36.8582 82.2648 36.5018 81.8649 36.2517 81.4052C35.0167 79.1287 33.813 76.8332 32.5999 74.5472C32.4373 74.2387 32.181 73.9364 32.1497 73.6121C32.1216 73.3255 32.2779 72.9414 32.4842 72.7398C32.6187 72.6076 33.0439 72.6296 33.244 72.7461C33.5316 72.913 33.8036 73.1901 33.9599 73.4893C35.223 75.9106 36.4861 78.332 37.6711 80.7912C37.9024 81.2667 37.7961 81.909 37.843 82.4727C37.6179 82.5451 37.3928 82.6175 37.1646 82.6899H37.1677Z" fill="#1F2932"/>
</g>
<defs>
<clipPath id="clip0_1013_591">
<rect width="59" height="99" fill="white"/>
</clipPath>
</defs>
</svg>
