<svg width="49" height="50" viewBox="0 0 49 50" fill="none" xmlns="http://www.w3.org/2000/svg">
<g clip-path="url(#clip0_1013_749)">
<path d="M35.7023 36.1681C35.4477 36.3861 35.2966 36.4951 35.1727 36.6276C31.9289 40.0469 28.6987 43.4796 25.4396 46.8838C24.5026 47.8631 23.4807 48.7603 22.5064 49.7044C22.172 50.0281 21.8546 50.0583 21.3827 49.9258C15.5893 48.2807 9.79937 46.6172 3.86682 45.5137C3.6801 45.4785 3.49848 45.4047 3.31176 45.3947C2.60053 45.3578 2.21012 44.9956 2.06584 44.3114C1.72805 42.6998 1.32406 41.1 1.0338 39.4801C0.278434 35.2625 -0.147623 31.0098 0.0475826 26.7201C0.179983 23.824 0.602645 20.9766 1.82141 18.2935C3.14711 15.3756 5.2044 13.0664 7.78961 11.1899C12.186 8.00033 16.9592 5.4698 21.9581 3.34343C24.2208 2.38086 26.5056 1.46357 28.8005 0.578135C30.7746 -0.184878 32.8421 -0.0775527 34.8723 0.239391C38.6592 0.831355 42.0304 2.40937 45.0535 4.72524C46.296 5.67775 47.3315 6.81137 48.1191 8.16467C48.7845 9.30667 49.1783 10.5376 48.9186 11.8271C48.6249 13.2878 48.1904 14.7266 47.7185 16.1436C46.9852 18.3471 46.1314 20.5104 45.4049 22.7156C45.0314 23.8509 44.7921 25.0314 44.5477 26.2036C44.383 26.9918 43.8975 27.572 43.3476 28.0718C42.7025 28.6587 42.6245 29.2658 42.8265 30.0707C43.0997 31.159 43.244 32.2792 43.4223 33.3894C43.6158 34.5901 43.334 35.6164 42.2731 36.3576C41.4991 36.8976 40.7844 37.5298 39.9731 38.0043C39.4723 38.2978 38.8494 38.4705 38.2637 38.5225C36.8735 38.6483 36.2047 38.105 35.8754 36.7433C35.8415 36.6007 35.7906 36.4616 35.7023 36.1664V36.1681ZM21.4896 46.2264C20.2912 45.8542 19.1862 45.4802 18.0625 45.17C16.8947 44.848 15.6997 44.6182 14.5352 44.2896C13.4387 43.981 12.2369 44.1252 11.1641 43.5131C11.3933 43.2767 11.6377 43.0989 11.8804 43.1006C12.5221 43.104 13.1807 43.1123 13.8019 43.2515C15.6878 43.6708 17.5601 44.147 19.434 44.6149C20.1572 44.796 20.8701 45.0123 21.7256 45.2505C22.4453 41.0178 23.5724 36.9881 24.1207 32.8662C16.8675 30.1411 9.46328 28.3736 1.94532 26.9901C1.37328 30.5855 2.63448 41.1168 3.94321 43.8401C5.23326 44.0934 6.54368 44.2929 7.82525 44.6132C11.8669 45.6244 15.8949 46.6842 19.9297 47.7173C20.3133 47.8162 20.7122 47.8548 21.1552 47.9319C21.2809 47.2963 21.3793 46.7949 21.4913 46.2298L21.4896 46.2264ZM25.2614 29.3043C25.6806 27.4161 26.1101 25.6368 26.4682 23.8458C27.1557 20.4047 25.8894 17.6881 23.2431 15.4829C19.7158 12.5449 15.6046 11.6242 11.12 12.0803C9.87915 12.2061 8.6553 12.5499 7.6623 13.3934C5.01769 15.6439 3.29818 18.4511 2.51396 21.8117C2.44776 22.0951 2.44946 22.3919 2.39854 22.895C10.2781 23.9901 17.611 26.8828 25.2614 29.3043ZM27.872 26.5541C28.0672 26.5105 28.1147 26.5139 28.1385 26.4921C30.1449 24.6608 32.1564 22.8346 34.1407 20.9799C34.3257 20.8072 34.4292 20.4517 34.4207 20.1884C34.3359 17.8172 34.0337 15.4846 33.0492 13.2827C31.1532 9.04507 28.0027 6.41057 23.2601 5.87395C22.2942 5.76495 21.2197 5.64588 20.3371 5.94438C17.5057 6.89857 14.9901 8.49335 12.4576 10.0261C12.5356 10.1737 12.5509 10.229 12.5679 10.229C13.0585 10.2525 13.549 10.2743 14.0413 10.2877C18.2204 10.4 21.9106 11.7232 25.0271 14.5337C27.9348 17.1565 29.0229 20.3695 28.3388 24.1846C28.2013 24.9543 28.0384 25.719 27.872 26.5558V26.5541ZM27.2966 2.91078C27.6768 2.99295 27.8245 3.01978 27.9688 3.05835C31.2856 3.9421 34.0015 5.72805 35.8008 8.62247C37.303 11.039 38.1415 13.7271 38.3198 16.588C38.3367 16.8597 38.4216 17.1263 38.4963 17.5003C38.8324 17.2688 39.0463 17.1196 39.2601 16.972C41.6298 15.3554 43.996 13.7321 46.3741 12.1273C47.2738 11.5202 47.3994 11.3358 47.1617 10.2944C47.0633 9.86342 46.8867 9.43747 46.6763 9.04339C46.1212 8.00368 45.3539 7.13166 44.4339 6.3871C42.8383 5.09584 41.0849 4.07123 39.1855 3.28306C36.2676 2.0723 33.241 1.52058 30.0804 1.87442C29.1536 1.97839 28.2455 2.19472 27.2949 2.91078H27.2966ZM23.3874 46.1225C23.479 46.1493 23.5707 46.1745 23.6624 46.2013C23.9628 45.8743 24.2599 45.5439 24.5654 45.2203C26.4479 43.218 28.3167 41.2023 30.2213 39.2218C31.0293 38.3817 31.9391 37.6354 32.7505 36.7986C33.0441 36.4951 33.3412 36.0608 33.3751 35.665C33.5211 33.9545 33.6925 32.2289 33.6111 30.5201C33.5567 29.363 33.7146 28.3032 34.0371 27.2182C34.1865 26.7118 34.178 26.16 34.2697 25.3769C33.735 25.7542 33.4175 25.942 33.1426 26.1785C31.3738 27.7062 29.6424 29.2758 27.8415 30.7649C26.9299 31.5179 26.4173 32.3581 26.1848 33.5437C25.6246 36.4062 24.8692 39.2319 24.2174 42.0777C23.9102 43.4192 23.659 44.7742 23.3823 46.1225H23.3874ZM22.8595 4.74536C22.9664 4.83759 23.0156 4.91473 23.0801 4.92815C23.3755 4.9902 23.6742 5.03883 23.973 5.08411C27.1421 5.5721 29.7748 6.97403 31.7829 9.4861C33.8708 12.0971 35.0047 15.067 35.2644 18.3689C35.3662 19.6635 35.4171 20.9632 35.4952 22.3165C36.4305 21.9006 37.1129 21.3522 37.1774 20.2706C37.2164 19.5998 37.3556 18.9324 37.3692 18.2599C37.4337 15.1944 36.6512 12.3285 35.2457 9.60852C33.3802 6.0014 29.2266 3.65534 25.1595 3.91695C24.3023 3.97229 23.5928 4.32612 22.8612 4.74536H22.8595ZM2.00303 25.4255C5.94449 26.2975 9.73827 27.0287 13.4709 27.9929C17.1934 28.9538 20.8548 30.1495 24.6825 31.2831C24.7623 30.8153 24.8183 30.4832 24.8811 30.1193C17.3649 27.6022 10.0353 24.9023 2.16089 23.7486C2.10148 24.3808 2.05396 24.8889 2.00303 25.4255ZM45.3302 17.8356C45.264 17.777 45.1978 17.7166 45.1333 17.6579C43.0403 19.0682 40.944 20.4735 38.8646 21.9006C38.6762 22.0297 38.5218 22.303 38.4827 22.5311C38.4029 22.9973 38.4131 23.4786 38.3843 23.9951C39.8169 24.2215 39.6387 25.4406 39.8933 26.2137C40.5451 26.6279 41.0798 26.9683 41.6315 27.3205C42.7331 26.7218 43.1693 25.6704 43.4834 24.5233C44.0164 22.5747 44.5748 20.6328 45.1197 18.6875C45.1978 18.4058 45.2606 18.1207 45.3302 17.8373V17.8356ZM41.4923 29.2087C40.0579 30.0489 38.9071 30.723 37.7511 31.3988C38.2943 33.3441 38.8018 35.1619 39.3722 37.2078C40.3516 36.3878 41.1986 35.727 41.976 34.9959C42.1865 34.798 42.3104 34.3687 42.2697 34.0719C42.0592 32.5274 41.7842 30.9913 41.4906 29.2087H41.4923ZM46.9852 12.8333C46.3419 13.1989 45.9005 13.4085 45.5016 13.6818C43.4834 15.0653 41.5042 16.5025 39.4553 17.8407C38.5472 18.4343 38.2094 19.1571 38.3758 20.2572C38.6677 20.0928 38.9291 19.9654 39.1702 19.8044C41.2394 18.431 43.2491 16.9569 45.3947 15.711C46.5235 15.0553 46.7492 14.1514 46.9852 12.8333ZM36.1436 30.8186C36.0028 30.012 35.8687 29.2859 35.7532 28.5547C35.721 28.3518 35.6684 28.003 35.7532 27.9594C35.9484 27.8588 36.2642 27.8152 36.4509 27.9057C36.9788 28.1657 37.4082 28.1623 37.7477 27.8135C37.4473 27.5603 37.2011 27.3523 36.955 27.1444C37.2266 26.918 37.4693 26.6363 37.7783 26.482C38.1008 26.321 38.4861 26.2841 38.8239 26.1986C38.8392 25.2545 38.5998 24.9946 37.8547 25.1186C37.6 25.1606 37.3454 25.2662 37.1146 25.3886C35.4375 26.2825 34.4021 28.6788 34.8892 30.5084C35.1099 31.3368 35.3424 31.4022 36.147 30.8169L36.1436 30.8186ZM27.0674 29.1752C27.1184 29.2205 27.1676 29.2658 27.2185 29.3127C27.2881 29.2842 27.3713 29.2725 27.4256 29.2255C29.5779 27.3859 31.7201 25.5379 33.881 23.7083C34.3698 23.2941 34.4428 22.8313 34.2832 22.0716C31.805 24.1376 29.656 26.2959 27.4952 28.4407C27.3 28.6335 27.2083 28.927 27.0674 29.1735V29.1752ZM37.1791 30.4664C38.386 29.7135 39.4842 29.0276 40.7844 28.216C40.2379 27.889 39.8627 27.6659 39.4265 27.4043C38.8477 28.5178 38.0074 29.0796 36.8345 29.2926C36.955 29.7018 37.0535 30.0371 37.1808 30.4681L37.1791 30.4664ZM37.8037 37.3554C37.8903 37.2766 37.9769 37.1977 38.0617 37.1172C37.6476 35.6466 37.2707 34.1641 36.7038 32.7186C36.5324 32.8544 36.4118 32.9886 36.4288 33.1026C36.6053 34.3218 36.7649 35.5459 37.0263 36.75C37.0789 36.9948 37.5338 37.1558 37.802 37.3554H37.8037ZM37.4642 22.8984C36.9058 23.3092 36.4594 23.6362 36.0163 23.9666C35.4528 24.3858 35.2044 24.8252 35.2712 25.2847C35.7838 24.9728 36.2608 24.5837 36.8073 24.3741C37.4693 24.1209 37.6561 23.7285 37.4642 22.8967V22.8984ZM34.4886 32.2876V34.5918C35.6904 34.2195 35.2389 33.3374 35.3238 32.5828C35.0454 32.4838 34.8094 32.4 34.4886 32.2876Z" fill="white"/>
<path d="M4.63571 31.0088C5.29431 30.8394 5.37749 31.2821 5.42671 31.6896C5.58118 32.949 5.71188 34.2117 5.84089 35.4745C6.00045 37.0341 6.15661 38.5936 6.2975 40.1549C6.33315 40.5456 6.4961 41.0973 5.96311 41.2046C5.38088 41.3237 5.35372 40.7317 5.31978 40.3578C5.0414 37.4214 4.79187 34.4834 4.54235 31.5454C4.52707 31.371 4.60176 31.1916 4.63571 31.0104V31.0088Z" fill="white"/>
<path d="M7.23448 18.2975C7.38895 17.89 7.44327 17.521 7.64187 17.2594C10.2916 13.7865 14.1855 12.8222 17.9402 14.1738C18.0811 14.2242 18.2678 14.2761 18.3323 14.3851C18.4512 14.5864 18.497 14.8312 18.5734 15.0576C18.368 15.1129 18.1439 15.2505 17.9623 15.2085C17.4853 15.0995 17.0372 14.8698 16.5602 14.7641C13.2044 14.0196 10.5462 15.2186 8.35479 17.682C7.92364 18.1667 7.93552 18.1784 7.23448 18.2992V18.2975Z" fill="white"/>
<path d="M30.6065 18.2686C30.8153 18.6006 31.0682 18.8287 31.0937 19.0785C31.1786 19.8885 31.2006 20.7085 31.1939 21.5235C31.1939 21.6644 30.9477 21.8623 30.7763 21.9159C30.6829 21.9461 30.3995 21.7365 30.3893 21.6208C30.3044 20.628 30.2569 19.6302 30.2178 18.6341C30.2144 18.5637 30.3689 18.4866 30.6065 18.2686Z" fill="white"/>
<path d="M41.0594 7.15349C41.6042 6.8835 41.9828 7.23734 42.3358 7.55261C43.6293 8.70635 43.9586 10.1938 43.7515 11.8288C43.7277 12.015 43.4443 12.1693 43.2813 12.3386C43.1285 12.1625 42.9079 12.0083 42.8434 11.8037C42.7687 11.5672 42.8213 11.2872 42.8332 11.0273C42.8943 9.82488 42.4258 8.85392 41.5245 8.06575C41.258 7.83266 40.8455 7.66832 41.0594 7.15349Z" fill="white"/>
<path d="M29.1298 5.47676C28.8853 5.68303 28.7326 5.91109 28.5832 5.90942C28.4287 5.90774 28.276 5.68303 28.1232 5.55726C28.259 5.40969 28.3761 5.17324 28.5357 5.14137C28.6749 5.11286 28.8616 5.31578 29.1298 5.47844V5.47676Z" fill="white"/>
<path d="M36.0604 15.5391C36.1911 15.804 36.3473 15.9818 36.3371 16.1495C36.332 16.2518 35.9942 16.453 35.9416 16.4161C35.7871 16.3105 35.6445 16.1176 35.6123 15.9382C35.597 15.8543 35.8448 15.7235 36.0604 15.5391Z" fill="white"/>
<path d="M25.6636 4.12179C25.8622 4.34651 26.0879 4.49072 26.093 4.63997C26.0964 4.77581 25.869 5.01896 25.7264 5.02903C25.5906 5.04076 25.3326 4.82611 25.3173 4.69028C25.3003 4.54271 25.5006 4.37166 25.6636 4.12012V4.12179Z" fill="white"/>
<path d="M36.2726 20.2528C36.1402 19.9828 35.9891 19.8101 35.9942 19.6407C35.9976 19.5334 36.2302 19.4311 36.3609 19.3271C36.4729 19.4881 36.6443 19.6407 36.6749 19.8168C36.6919 19.9124 36.4712 20.0482 36.2726 20.2545V20.2528Z" fill="white"/>
<path d="M34.0235 9.32409C33.796 9.51862 33.645 9.74501 33.5058 9.7383C33.3564 9.73159 33.112 9.51526 33.1018 9.3744C33.0916 9.23857 33.3089 8.98535 33.4531 8.96522C33.5957 8.9451 33.7706 9.15304 34.0235 9.32241V9.32409Z" fill="white"/>
<path d="M35.2524 12.0004C35.0402 12.1631 34.8994 12.3542 34.7788 12.3425C34.6532 12.3291 34.458 12.1245 34.4563 12.0004C34.4563 11.883 34.6549 11.6801 34.7822 11.6667C34.9011 11.6533 35.0419 11.8411 35.2524 12.0004Z" fill="white"/>
<path d="M31.7897 7.33011C31.4722 7.44414 31.2906 7.57495 31.1395 7.54644C30.9664 7.51458 30.8204 7.34185 30.6609 7.22949C30.8 7.10037 30.9189 6.91423 31.0835 6.86057C31.1752 6.83038 31.3398 7.01988 31.7897 7.33011Z" fill="white"/>
<path d="M40.854 32.2862C40.9185 32.9754 40.9898 33.6646 41.0424 34.3555C41.0645 34.654 41.0746 35.0028 40.6741 35.0548C40.2989 35.1035 40.1445 34.8284 40.1105 34.4998C40.0528 33.9296 39.8813 33.4299 39.4213 33.0307C39.2737 32.9016 39.2312 32.6333 39.1786 32.4203C39.0649 31.9541 39.1175 31.493 39.569 31.2448C39.7982 31.119 40.2344 31.0419 40.3855 31.1677C40.6961 31.4242 40.8794 31.8334 41.1154 32.1805C41.0271 32.2157 40.9406 32.2526 40.8523 32.2879L40.854 32.2862Z" fill="white"/>
</g>
<defs>
<clipPath id="clip0_1013_749">
<rect width="49" height="50" fill="white"/>
</clipPath>
</defs>
</svg>
