<svg width="113" height="88" viewBox="0 0 113 88" fill="none" xmlns="http://www.w3.org/2000/svg">
<g clip-path="url(#clip0_795_486)">
<path d="M104.981 62.6309H101.49C99.2383 62.6309 99.2383 66.0603 101.49 66.0603H104.981C107.233 66.0603 107.233 62.6309 104.981 62.6309Z" fill="#231F20"/>
<path d="M91.0224 70.8574H22.626C20.374 70.8574 20.374 74.2868 22.626 74.2868H91.0224C93.2744 74.2868 93.2744 70.8574 91.0224 70.8574Z" fill="#231F20"/>
<path d="M12.8542 74.287C13.8049 74.287 14.5972 73.5087 14.5972 72.5747C14.5972 71.6407 13.8049 70.8623 12.8542 70.8623H10.0643C9.11358 70.8623 8.32129 71.6407 8.32129 72.5747C8.32129 73.5087 9.11358 74.287 10.0643 74.287H12.8542Z" fill="#231F20"/>
<path d="M77.0637 77.7119H6.57379C4.32176 77.7119 4.32176 81.1413 6.57379 81.1413H77.0637C79.3158 81.1413 79.3158 77.7119 77.0637 77.7119Z" fill="#231F20"/>
<path d="M55.4266 84.5703H24.023C21.771 84.5703 21.771 87.9997 24.023 87.9997H55.4314C57.6834 87.9997 57.6834 84.5703 55.4314 84.5703H55.4266Z" fill="#231F20"/>
<path d="M83.114 25.5483C82.4561 25.5342 81.9135 25.1191 81.2509 25.0908C80.7755 25.0672 80.377 25.4965 80.377 25.9493C80.377 26.4257 80.7659 26.7701 81.2317 26.8031C81.2317 26.8031 81.2269 26.8031 81.2221 26.8031C81.2941 26.8173 81.3613 26.8456 81.4333 26.8692C81.563 26.9163 81.6926 26.973 81.8223 27.0248C82.2352 27.1852 82.677 27.256 83.1188 27.2654C84.2424 27.2937 84.2424 25.5766 83.1188 25.5531L83.114 25.5483Z" fill="#231F20"/>
<path d="M99.3488 0.240505C98.5229 -0.184046 97.4377 0.0140779 96.9623 0.853745C96.4389 1.77832 95.8819 2.67932 95.3153 3.57087C95.2432 3.46238 95.1568 3.35388 95.0512 3.2501C93.9132 2.14155 92.7367 1.16037 91.4402 0.240505C90.7344 -0.259522 89.4043 0.0518157 89.0538 0.853745C86.6337 6.37763 83.3637 11.7128 79.0901 16.048C78.874 16.2697 78.7396 16.5055 78.6627 16.7461C78.4995 16.7461 78.341 16.7414 78.1778 16.7461C74.0194 16.798 70.1156 18.6849 70.202 23.2087C70.2068 23.5578 70.3077 23.8408 70.4565 24.0814C69.7939 24.7513 69.1696 25.4588 68.6991 26.2655C63.662 24.3975 57.7126 26.3457 53.4919 29.7704C53.3622 29.8789 53.2614 29.9921 53.175 30.11C53.1269 30.1478 53.0741 30.1808 53.0261 30.228C42.0301 41.0304 31.034 51.8329 20.038 62.6353H1.6856C-0.566425 62.6353 -0.566425 66.0648 1.6856 66.0648H36.364C36.5224 66.112 36.6953 66.1167 36.8633 66.0648H93.8123C96.0643 66.0648 96.0643 62.6353 93.8123 62.6353H79.4118C82.7635 59.3427 86.1103 56.0548 89.4619 52.7622C89.558 52.6678 89.6348 52.5735 89.702 52.4744C89.9997 52.281 90.2494 51.9791 90.3791 51.5451C91.1521 48.9695 90.7344 46.4128 89.3755 44.2429C90.331 43.4409 91.3202 42.7003 92.1269 41.7663C92.343 41.8418 92.5927 41.8701 92.8856 41.8371C99.4496 41.021 99.5024 35.9783 97.5865 31.0582C97.6729 30.9921 97.7594 30.9167 97.8458 30.8223C101.236 27.0485 106.964 25.5815 111.094 22.6568C111.492 22.5672 111.853 22.2983 112.078 21.7888C115.996 12.9346 106.695 4.02844 99.3536 0.245222L99.3488 0.240505ZM91.2194 4.41526C91.6803 4.81622 92.1269 5.23134 92.5831 5.67476C92.8904 5.97666 93.2313 6.1229 93.5722 6.16535C90.8016 10.1184 87.7045 13.8592 84.7898 17.7179C84.1272 17.5009 83.4549 17.3263 82.7682 17.1848C86.2111 13.4016 89.0298 9.01456 91.2242 4.42469L91.2194 4.41526ZM92.8856 38.4029C92.7943 38.4124 92.7175 38.4359 92.6311 38.4595C92.6119 38.4407 92.5975 38.4265 92.5783 38.4076C92.7799 38.219 92.8856 37.9454 92.7943 37.601C91.7956 33.8885 89.9277 29.459 86.3456 27.492C85.3612 26.9542 84.4825 28.4307 85.4668 28.9732C88.6072 30.6997 90.2014 34.714 91.0897 37.9642C90.6624 38.035 90.259 38.2944 89.9853 38.7945C89.2314 40.1908 87.8341 41.054 86.6289 42.0635C85.4428 42.2852 84.5065 43.8372 85.6061 44.9835C87.037 46.4741 87.57 48.2902 87.109 50.2432C87.0754 50.2715 87.037 50.2951 87.0034 50.3281C82.8307 54.4274 78.6579 58.5266 74.4852 62.6259H40.5895C43.2209 59.989 45.761 57.2624 48.5941 54.8189C49.7801 53.8 51.0382 52.8801 52.3635 52.0452C53.0309 51.6253 55.5902 49.8658 55.1917 51.4932C54.4954 54.3472 51.043 56.7435 48.9974 58.7059C48.1907 59.4795 49.4248 60.6918 50.2315 59.9182C53.0405 57.22 57.6982 53.866 56.9684 49.4837C56.9107 49.1488 56.4786 48.8091 56.128 48.8563C52.1474 49.3658 48.9014 52.2197 46.0299 54.7717C43.2449 57.2483 40.7576 60.022 38.107 62.6259H24.979C35.1539 52.6301 45.3289 42.6343 55.499 32.6432C55.6047 32.5394 55.6911 32.4309 55.7631 32.3177C55.8303 32.2752 55.8976 32.2375 55.9648 32.1856C58.9467 29.7657 63.4844 28.0863 67.2153 29.3364C67.2489 29.3694 67.2777 29.3977 67.3162 29.426C69.2657 30.8459 67.441 33.2376 66.207 34.4782C65.4243 35.2707 66.6535 36.483 67.441 35.6905C68.7759 34.3461 69.8899 32.5536 69.8515 30.8648C71.5177 32.2092 73.8946 29.8506 72.2476 28.3882C72.0795 28.2373 71.9067 28.0958 71.7338 27.959C72.2236 27.157 72.9006 26.5202 73.6449 25.7843C74.4132 25.0296 74.2307 24.0814 73.6689 23.4729C73.6785 23.3833 73.6929 23.2983 73.6929 23.204C73.6353 20.0623 77.2798 20.1189 79.6711 20.1755C83.3637 20.2652 86.5136 21.8643 89.193 24.2842C91.1329 26.0343 99.4016 37.5916 92.8856 38.4029ZM96.0067 27.742C94.8495 25.6664 93.5002 23.8078 92.3718 22.5719C91.0897 21.1662 89.6252 20.0293 88.0406 19.1377C91.8148 14.1658 95.8675 9.3825 99.1039 4.05203C104.347 7.20314 111.593 13.7318 109.154 19.8217C105.044 22.6804 99.6081 24.2465 96.0115 27.7467L96.0067 27.742Z" fill="#231F20"/>
<path d="M98.9933 9.94913C98.9645 11.1615 98.4843 12.2464 98.0953 13.3786C97.7304 14.4258 99.4158 14.8739 99.776 13.8361C100.223 12.5483 100.708 11.3313 100.736 9.95385C100.76 8.85002 99.0173 8.85002 98.9933 9.95385V9.94913Z" fill="#231F20"/>
<path d="M101.317 11.321V14.0618C101.317 15.1656 103.06 15.1656 103.06 14.0618V11.321C103.06 10.2172 101.317 10.2172 101.317 11.321Z" fill="#231F20"/>
<path d="M103.646 15.4343V16.3495C103.646 17.4533 105.389 17.4533 105.389 16.3495V15.4343C105.389 14.3305 103.646 14.3305 103.646 15.4343Z" fill="#231F20"/>
</g>
<defs>
<clipPath id="clip0_795_486">
<rect width="113" height="88" fill="white"/>
</clipPath>
</defs>
</svg>
