<svg width="20" height="16" viewBox="0 0 20 16" fill="none" xmlns="http://www.w3.org/2000/svg">
<g clip-path="url(#clip0_1128_544)">
<path d="M19.967 6.6925C19.9693 6.69711 19.9708 6.70249 19.9724 6.7071C19.97 6.70249 19.9685 6.69711 19.967 6.6925Z" fill="#040113"/>
<path d="M19.9893 6.76166C19.9893 6.76166 19.9916 6.76934 19.9923 6.77318C19.9923 6.76934 19.99 6.7655 19.9893 6.76166Z" fill="#040113"/>
<path d="M19.9992 6.83997C20.0008 6.91446 19.9808 6.98894 19.9401 7.05345C19.8694 7.16403 19.7473 7.23084 19.616 7.23084H14.0032C13.8089 9.26893 12.0872 10.8693 9.99923 10.8693C7.91122 10.8693 6.18952 9.2697 5.99523 7.23084H0.383962C0.252646 7.23084 0.130545 7.16403 0.059895 7.05345C0.0184267 6.98894 -0.000771598 6.91446 0.000764264 6.83997C0.000764264 6.84227 0.000764264 6.84457 0.000764264 6.84688V15.6097C0.000764264 15.8217 0.172781 15.9937 0.38473 15.9937H19.6168C19.8287 15.9937 20.0008 15.8217 20.0008 15.6097V6.84688C20.0008 6.84688 20.0008 6.84227 20.0008 6.83997H19.9992Z" fill="#040113"/>
<path d="M0 6.83994C0 6.8169 0.00230379 6.79463 0.00691138 6.77313C0.00230379 6.7954 0.000767931 6.81767 0 6.83994Z" fill="#040113"/>
<path d="M0.383965 6.46368H6.36077C6.57272 6.46368 6.74474 6.63569 6.74474 6.84764C6.74474 8.6423 8.20458 10.1021 9.99923 10.1021C11.7939 10.1021 13.2537 8.6423 13.2537 6.84764C13.2537 6.63569 13.4257 6.46368 13.6377 6.46368H19.616C19.7727 6.46368 19.9078 6.55813 19.967 6.69329C19.9662 6.69098 19.9654 6.68791 19.9639 6.68561L16.9505 0.221932C16.8876 0.0867762 16.7517 0 16.6027 0H3.39733C3.24835 0 3.11242 0.0867762 3.04945 0.221932L0.0360917 6.68484C0.0360917 6.68484 0.0345559 6.69022 0.03302 6.69252C0.0929187 6.55736 0.227307 6.46291 0.383965 6.46291V6.46368Z" fill="#040113"/>
<path d="M19.9724 6.70789C19.9793 6.72555 19.9846 6.74321 19.9892 6.76241C19.9854 6.74398 19.9793 6.72555 19.9724 6.70789Z" fill="#040113"/>
<path d="M19.9923 6.77313C19.9969 6.79463 19.9985 6.8169 19.9992 6.83994C19.9992 6.81767 19.9969 6.7954 19.9923 6.77313Z" fill="#040113"/>
</g>
<defs>
<clipPath id="clip0_1128_544">
<rect width="20" height="15.9945" fill="white"/>
</clipPath>
</defs>
</svg>
