<svg width="20" height="20" viewBox="0 0 20 20" fill="none" xmlns="http://www.w3.org/2000/svg">
<g clip-path="url(#clip0_1128_555)">
<path d="M13.4186 2.09709C13.3403 2.01875 13.2344 1.9754 13.1236 1.9754C13.0127 1.9754 12.9069 2.01958 12.8285 2.09709L0.197543 14.7289C0.190041 14.7364 0.184207 14.7456 0.176705 14.7539C0.166703 14.7656 0.156701 14.7764 0.147532 14.7889C0.140031 14.8006 0.134196 14.8122 0.127528 14.8247C0.12086 14.8364 0.114192 14.8481 0.108357 14.8606C0.102523 14.8739 0.0991888 14.8881 0.0950213 14.9014C0.0916872 14.9139 0.0866862 14.9256 0.0841857 14.9381C0.0808516 14.9548 0.0800181 14.9714 0.0783511 14.9881C0.0783511 14.9973 0.0750171 15.0065 0.0750171 15.0156L1.45941e-06 19.4991C-0.00166555 19.6107 0.0408433 19.7183 0.119193 19.7983C0.197543 19.8783 0.304231 19.9225 0.415921 19.9225H4.96104C4.96604 19.9225 4.9702 19.9241 4.9752 19.9241C5.08189 19.9241 5.18858 19.8833 5.27027 19.8025L17.9021 7.17065C18.0646 7.00812 18.0646 6.7439 17.9021 6.58136L13.4178 2.09709H13.4186Z" fill="#040113"/>
<path d="M19.8775 3.7258L16.2742 0.121717C16.1117 -0.0408166 15.8475 -0.0408166 15.6849 0.121717C15.5224 0.284251 15.5224 0.548473 15.6849 0.711007L19.2882 4.31426C19.3699 4.39594 19.4766 4.43595 19.5832 4.43595C19.6899 4.43595 19.7966 4.39511 19.8783 4.31426C20.0408 4.15172 20.0408 3.8875 19.8783 3.72497L19.8775 3.7258Z" fill="#040113"/>
</g>
<defs>
<clipPath id="clip0_1128_555">
<rect width="20" height="19.9242" fill="white"/>
</clipPath>
</defs>
</svg>
